<?xml version="1.0" encoding="UTF-8"?>
<!DOCTYPE svg PUBLIC "-//W3C//DTD SVG 1.1//EN" "http://www.w3.org/Graphics/SVG/1.1/DTD/svg11.dtd">
<svg xmlns="http://www.w3.org/2000/svg" version="1.1" width="30px" height="30px" style="shape-rendering:geometricPrecision; text-rendering:geometricPrecision; image-rendering:optimizeQuality; fill-rule:evenodd; clip-rule:evenodd" xmlns:xlink="http://www.w3.org/1999/xlink">
<g><path style="opacity:0.988" fill="#1b51f8" d="M 9.5,-0.5 C 13.1667,-0.5 16.8333,-0.5 20.5,-0.5C 23.8333,2.16667 26.8333,5.16667 29.5,8.5C 29.5,12.5 29.5,16.5 29.5,20.5C 26.8333,23.8333 23.8333,26.8333 20.5,29.5C 16.5,29.5 12.5,29.5 8.5,29.5C 5.16667,26.8333 2.16667,23.8333 -0.5,20.5C -0.5,16.5 -0.5,12.5 -0.5,8.5C 2.23454,4.76189 5.56787,1.76189 9.5,-0.5 Z"/></g>
<g><path style="opacity:1" fill="#fafbff" d="M 9.5,4.5 C 21.043,3.20754 25.8764,8.20754 24,19.5C 17.6667,26.1667 11.3333,26.1667 5,19.5C 4.50999,18.2068 4.34332,16.8734 4.5,15.5C 24.5,14.8333 24.5,14.1667 4.5,13.5C 4.34332,12.1266 4.50999,10.7932 5,9.5C 6.70733,7.96252 8.20733,6.29585 9.5,4.5 Z"/></g>
</svg>
